<svg xmlns="http://www.w3.org/2000/svg" xmlns:xlink="http://www.w3.org/1999/xlink" width="500" zoomAndPan="magnify" viewBox="0 0 375 374.999991" height="500" preserveAspectRatio="xMidYMid meet" version="1.0"><defs><g/><clipPath id="ea49fc3e18"><path d="M 117 41 L 257.847656 41 L 257.847656 245.703125 L 117 245.703125 Z M 117 41 " clip-rule="nonzero"/></clipPath><clipPath id="de92e08202"><path d="M 0.160156 72 L 43 72 L 43 114 L 0.160156 114 Z M 0.160156 72 " clip-rule="nonzero"/></clipPath><clipPath id="877eab1608"><rect x="0" width="71" y="0" height="161"/></clipPath><clipPath id="6678abeaff"><rect x="0" width="101" y="0" height="74"/></clipPath></defs><g clip-path="url(#ea49fc3e18)"><path fill="#000000" d="M 133.765625 245.441406 C 129.835938 244.730469 128.90625 243.929688 128.207031 242.902344 C 128.058594 242.683594 128.085938 242.949219 127.773438 241.988281 C 127.402344 240.863281 127.027344 239.507812 126.621094 236.84375 C 126.226562 234.253906 125.660156 230.578125 125.359375 228.675781 C 123.882812 221.792969 124.757812 224.640625 123.882812 221.792969 C 123.167969 219.046875 122.234375 211.0625 121.863281 204.507812 C 121.679688 201.207031 121.472656 198.414062 121.40625 198.308594 C 121.34375 198.199219 121.117188 194.246094 120.910156 189.523438 C 120.699219 184.734375 119.917969 174.742188 119.144531 166.941406 C 116.90625 144.417969 116.839844 141.886719 117.996094 124.011719 L 118.203125 120.828125 L 122.648438 120.722656 C 127.292969 120.609375 132.453125 121.09375 134.082031 121.792969 C 136.015625 122.621094 136.707031 122.605469 139.433594 121.660156 C 142.941406 120.441406 145.878906 120.011719 150.910156 119.972656 C 153.183594 119.957031 156.136719 119.929688 157.476562 119.910156 L 159.910156 119.878906 L 160.117188 118.765625 C 160.230469 118.152344 160.441406 115.789062 160.585938 113.515625 C 160.863281 109.105469 162.597656 94.320312 163.109375 92.007812 C 163.277344 91.242188 163.648438 89.042969 163.929688 87.121094 C 164.511719 83.191406 165.957031 76.484375 166.945312 73.128906 C 167.308594 71.902344 167.949219 69.292969 168.371094 67.324219 C 170.046875 59.542969 172.960938 52.5625 176.511719 47.851562 C 179.3125 44.128906 182.011719 42.300781 185.867188 41.503906 C 187.519531 41.160156 188.09375 41.179688 189.839844 41.621094 C 196.308594 43.261719 198.828125 46.464844 202.792969 58.078125 C 203.824219 61.109375 205.480469 66.378906 206.472656 69.789062 C 207.460938 73.199219 208.398438 76.277344 208.554688 76.625 C 208.90625 77.414062 212.847656 95.265625 213.296875 98.089844 C 213.300781 102.839844 213.613281 102.972656 214.246094 108.992188 C 214.855469 116.105469 215.15625 117.886719 215.871094 118.601562 C 216.464844 119.203125 217.054688 119.25 225.785156 119.417969 C 235.230469 119.601562 236.503906 119.765625 237.875 120.953125 C 238.199219 121.234375 239.042969 121.726562 239.621094 121.464844 L 241.730469 120.511719 C 242.433594 120.191406 242.683594 120.367188 243.160156 120.292969 C 243.945312 120.175781 247.570312 119.972656 251.210938 119.84375 L 257.832031 119.613281 L 257.667969 121.652344 C 257.429688 124.640625 256.894531 138.496094 256.484375 152.3125 C 256.289062 158.957031 255.996094 165.039062 255.839844 165.828125 C 255.679688 166.613281 255.335938 170.335938 255.074219 174.097656 C 254.8125 177.855469 254.382812 182.148438 254.121094 183.636719 C 253.804688 190.8125 254.222656 195.816406 253.460938 202.875 C 253.367188 203.75 253.164062 206.183594 253.007812 208.28125 C 252.855469 210.382812 252.578125 213.53125 252.386719 215.277344 C 252.199219 217.027344 252.082031 220.382812 251.671875 222.671875 C 250.917969 226.886719 250.96875 226.632812 250.917969 226.886719 C 250.761719 227.710938 250.140625 231.339844 250.140625 231.339844 C 248.367188 241.480469 249.488281 238.832031 247.980469 241.40625 C 246.527344 243.886719 246.207031 244.132812 243.429688 244.90625 C 241.542969 245.429688 239.027344 245.457031 203.785156 245.332031 C 150.988281 245.136719 138.824219 245.144531 136.464844 245.363281 C 135.328125 245.46875 134.113281 245.503906 133.765625 245.441406 Z M 187.734375 118.929688 C 195.414062 118.839844 202.183594 118.675781 202.777344 118.566406 L 203.855469 118.363281 L 203.640625 116.097656 C 203.382812 113.363281 202.289062 105.332031 200.804688 95.230469 C 200.199219 91.121094 199.335938 84.324219 198.882812 80.125 C 196.195312 55.214844 195.96875 53.785156 194.128906 49.894531 C 192.773438 47.027344 192.722656 46.96875 190.753906 45.984375 C 187.324219 44.269531 185.257812 44.707031 182.179688 47.800781 C 179.851562 50.140625 178.550781 52.152344 177.882812 54.441406 C 177.640625 55.273438 177.023438 57.171875 176.515625 58.660156 C 175.804688 60.742188 175.507812 62.421875 175.214844 65.972656 C 175.007812 68.511719 174.566406 72.730469 174.230469 75.355469 C 173.574219 80.476562 173.265625 85.355469 172.515625 102.546875 C 172.253906 108.578125 171.960938 114.742188 171.867188 116.238281 C 171.773438 117.738281 171.800781 119.066406 171.925781 119.191406 C 172.054688 119.320312 172.519531 119.347656 172.964844 119.257812 C 173.410156 119.164062 180.058594 119.019531 187.734375 118.929688 Z M 187.734375 118.929688 " fill-opacity="1" fill-rule="nonzero"/></g><g transform="matrix(1, 0, 0, 1, 152, 81)"><g clip-path="url(#877eab1608)"><g clip-path="url(#de92e08202)"><g fill="#ffffff" fill-opacity="1"><g transform="translate(3.884892, 106.584138)"><g><path d="M 4.375 6.578125 C 1.0625 5.578125 -1.289062 3.382812 -2.6875 0 C -3.019531 -0.789062 -3.21875 -1.550781 -3.28125 -2.28125 C -3.351562 -3.019531 -3.390625 -4.316406 -3.390625 -6.171875 C -3.390625 -8.023438 -3.335938 -9.367188 -3.234375 -10.203125 C -3.140625 -11.035156 -2.890625 -12.082031 -2.484375 -13.34375 C -1.492188 -16.726562 -0.15625 -19.945312 1.53125 -23 C 3.226562 -26.050781 5.070312 -28.609375 7.0625 -30.671875 C 9.320312 -32.921875 11.113281 -34.046875 12.4375 -34.046875 C 13.175781 -34.046875 13.972656 -33.613281 14.828125 -32.75 C 15.160156 -32.425781 15.375 -32.097656 15.46875 -31.765625 C 15.570312 -31.429688 15.59375 -30.765625 15.53125 -29.765625 C 15.46875 -28.640625 15.117188 -27.296875 14.484375 -25.734375 C 13.859375 -24.171875 13.046875 -22.660156 12.046875 -21.203125 C 11.046875 -19.742188 9.945312 -18.53125 8.75 -17.5625 C 7.5625 -16.601562 6.367188 -16.125 5.171875 -16.125 C 5.109375 -16.125 5.007812 -16.140625 4.875 -16.171875 C 4.738281 -16.210938 4.609375 -16.234375 4.484375 -16.234375 L 3.1875 -16.421875 L 2.390625 -13.734375 C 0.734375 -8.691406 0.414062 -4.726562 1.4375 -1.84375 C 2.46875 1.039062 4.675781 2.484375 8.0625 2.484375 C 10.382812 2.484375 12.707031 1.953125 15.03125 0.890625 C 17.351562 -0.171875 19.941406 -1.925781 22.796875 -4.375 C 25.648438 -6.832031 28.96875 -10.117188 32.75 -14.234375 C 33.882812 -15.429688 34.648438 -16.195312 35.046875 -16.53125 C 35.441406 -16.863281 35.875 -17.03125 36.34375 -17.03125 C 36.9375 -17.03125 37.460938 -16.8125 37.921875 -16.375 C 38.390625 -15.945312 38.625 -15.46875 38.625 -14.9375 C 38.625 -14.539062 38.09375 -13.675781 37.03125 -12.34375 C 35.96875 -11.019531 34.625 -9.507812 33 -7.8125 C 31.375 -6.125 29.695312 -4.460938 27.96875 -2.828125 C 26.25 -1.203125 24.757812 0.0703125 23.5 1 C 21.238281 2.65625 18.828125 4.0625 16.265625 5.21875 C 13.710938 6.382812 11.015625 6.96875 8.171875 6.96875 C 7.503906 6.96875 6.835938 6.914062 6.171875 6.8125 C 5.503906 6.71875 4.90625 6.640625 4.375 6.578125 Z M 7.765625 -22.40625 C 8.160156 -22.9375 8.609375 -23.628906 9.109375 -24.484375 C 9.609375 -25.347656 10.023438 -26.144531 10.359375 -26.875 C 10.691406 -27.613281 10.820312 -28.015625 10.75 -28.078125 C 10.6875 -28.140625 10.367188 -27.835938 9.796875 -27.171875 C 9.234375 -26.515625 8.601562 -25.703125 7.90625 -24.734375 C 7.21875 -23.773438 6.625 -22.878906 6.125 -22.046875 C 5.625 -21.222656 5.375 -20.710938 5.375 -20.515625 C 5.375 -20.378906 5.40625 -20.3125 5.46875 -20.3125 C 5.675781 -20.3125 5.992188 -20.523438 6.421875 -20.953125 C 6.847656 -21.390625 7.296875 -21.875 7.765625 -22.40625 Z M 7.765625 -22.40625 "/></g></g></g></g><g fill="#ffffff" fill-opacity="1"><g transform="translate(40.321901, 106.584138)"><g><path d="M -4.578125 40.21875 C -5.441406 39.289062 -6.019531 37.976562 -6.3125 36.28125 C -6.613281 34.59375 -6.765625 31.660156 -6.765625 27.484375 C -6.765625 25.554688 -6.734375 23.597656 -6.671875 21.609375 C -6.609375 19.617188 -6.539062 18.191406 -6.46875 17.328125 C -6.332031 16.523438 -6.25 15.804688 -6.21875 15.171875 C -6.1875 14.546875 -6.203125 14.203125 -6.265625 14.140625 C -6.335938 14.066406 -6.488281 14.097656 -6.71875 14.234375 C -6.945312 14.367188 -7.226562 14.503906 -7.5625 14.640625 C -12.875 17.691406 -16.789062 19.8125 -19.3125 21 C -21.832031 22.195312 -23.660156 22.796875 -24.796875 22.796875 C -25.390625 22.796875 -25.953125 22.628906 -26.484375 22.296875 C -27.546875 21.503906 -27.878906 20.441406 -27.484375 19.109375 C -27.148438 18.046875 -26.101562 16.898438 -24.34375 15.671875 C -22.582031 14.453125 -20.441406 13.3125 -17.921875 12.25 C -15.398438 11.1875 -12.84375 10.421875 -10.25 9.953125 C -8.863281 9.753906 -7.738281 9.390625 -6.875 8.859375 L -5.46875 8.0625 L -4.984375 3.6875 C -3.722656 -6.601562 -2.144531 -15.695312 -0.25 -23.59375 C 1.644531 -31.488281 3.71875 -37.726562 5.96875 -42.3125 C 7.832031 -46.164062 9.5625 -48.222656 11.15625 -48.484375 C 11.28125 -48.484375 11.394531 -48.5 11.5 -48.53125 C 11.601562 -48.570312 11.6875 -48.59375 11.75 -48.59375 C 12.082031 -48.59375 12.546875 -48.289062 13.140625 -47.6875 C 13.804688 -47.019531 14.140625 -46.222656 14.140625 -45.296875 C 14.140625 -44.367188 13.804688 -42.742188 13.140625 -40.421875 C 12.472656 -38.097656 11.988281 -36.632812 11.6875 -36.03125 C 11.394531 -35.4375 10.882812 -35.140625 10.15625 -35.140625 C 9.351562 -35.140625 8.820312 -35.375 8.5625 -35.84375 C 8.5 -36.039062 8.398438 -36.140625 8.265625 -36.140625 C 8.203125 -36.140625 8.066406 -35.90625 7.859375 -35.4375 C 7.660156 -34.976562 7.363281 -34.1875 6.96875 -33.0625 C 5.507812 -28.539062 4.195312 -23.441406 3.03125 -17.765625 C 1.875 -12.097656 0.734375 -5.015625 -0.390625 3.484375 C -0.523438 4.015625 -0.492188 4.28125 -0.296875 4.28125 C -0.0976562 4.28125 0.378906 4.015625 1.140625 3.484375 C 1.910156 2.953125 3.191406 2.023438 4.984375 0.703125 C 7.035156 -0.828125 8.875 -2.222656 10.5 -3.484375 C 12.125 -4.742188 13.71875 -6.050781 15.28125 -7.40625 C 16.84375 -8.769531 18.585938 -10.316406 20.515625 -12.046875 C 21.835938 -13.304688 23.0625 -14.398438 24.1875 -15.328125 C 25.320312 -16.253906 25.988281 -16.753906 26.1875 -16.828125 C 26.320312 -16.828125 26.421875 -16.84375 26.484375 -16.875 C 26.546875 -16.90625 26.613281 -16.921875 26.6875 -16.921875 C 27.414062 -16.921875 28.023438 -16.601562 28.515625 -15.96875 C 29.015625 -15.34375 29.164062 -14.695312 28.96875 -14.03125 C 28.90625 -13.832031 28.359375 -13.253906 27.328125 -12.296875 C 26.296875 -11.335938 25.035156 -10.175781 23.546875 -8.8125 C 22.054688 -7.445312 20.515625 -6.066406 18.921875 -4.671875 C 17.328125 -3.285156 15.863281 -2.0625 14.53125 -1 C 13.46875 -0.132812 12.023438 0.972656 10.203125 2.328125 C 8.378906 3.691406 6.800781 4.875 5.46875 5.875 C 4.144531 6.800781 2.914062 7.675781 1.78125 8.5 C 0.65625 9.332031 -0.0351562 9.816406 -0.296875 9.953125 L -1 10.546875 L 0.390625 11.34375 C 2.984375 12.875 4.8125 15.28125 5.875 18.5625 C 6.9375 21.851562 7.003906 25.390625 6.078125 29.171875 C 5.878906 29.960938 5.546875 31.039062 5.078125 32.40625 C 4.609375 33.769531 4.007812 35.128906 3.28125 36.484375 C 2.550781 37.847656 1.722656 39.007812 0.796875 39.96875 C -0.128906 40.9375 -1.125 41.421875 -2.1875 41.421875 C -3.050781 41.421875 -3.847656 41.019531 -4.578125 40.21875 Z M 0.390625 32.15625 C 2.390625 27.375 2.757812 23.160156 1.5 19.515625 C 1.226562 18.648438 0.695312 17.734375 -0.09375 16.765625 C -0.894531 15.804688 -1.394531 15.460938 -1.59375 15.734375 C -1.65625 15.796875 -1.71875 16.40625 -1.78125 17.5625 C -1.851562 18.726562 -1.921875 20.15625 -1.984375 21.84375 C -2.054688 23.539062 -2.109375 25.285156 -2.140625 27.078125 C -2.171875 28.867188 -2.1875 30.441406 -2.1875 31.796875 C -2.1875 33.160156 -2.15625 34.046875 -2.09375 34.453125 L -1.796875 36.046875 L -1.1875 35.25 C -1.0625 35.050781 -0.832031 34.648438 -0.5 34.046875 C -0.164062 33.453125 0.128906 32.820312 0.390625 32.15625 Z M 0.390625 32.15625 "/></g></g></g></g></g><g transform="matrix(1, 0, 0, 1, 137, 247)"><g clip-path="url(#6678abeaff)"><g fill="#000000" fill-opacity="1"><g transform="translate(0.81591, 49.142098)"><g><path d="M 9.484375 14.515625 C 8.929688 14.359375 8.585938 14 8.453125 13.4375 C 8.316406 12.882812 8.429688 12.257812 8.796875 11.5625 C 9.253906 10.625 10.03125 9.519531 11.125 8.25 C 12.226562 6.976562 13.554688 5.628906 15.109375 4.203125 C 16.671875 2.785156 18.34375 1.414062 20.125 0.09375 C 20.914062 -0.476562 21.484375 -0.929688 21.828125 -1.265625 C 22.179688 -1.597656 22.460938 -1.988281 22.671875 -2.4375 C 22.878906 -2.894531 23.132812 -3.578125 23.4375 -4.484375 C 24.59375 -7.867188 24.609375 -10.109375 23.484375 -11.203125 C 23.097656 -11.597656 22.585938 -11.796875 21.953125 -11.796875 C 21.828125 -11.796875 21.671875 -11.796875 21.484375 -11.796875 C 21.304688 -11.796875 21.128906 -11.765625 20.953125 -11.703125 C 19.472656 -11.429688 17.65625 -10.679688 15.5 -9.453125 C 13.351562 -8.234375 10.847656 -6.503906 7.984375 -4.265625 C 6.585938 -3.203125 5.5625 -2.453125 4.90625 -2.015625 C 4.257812 -1.578125 3.726562 -1.359375 3.3125 -1.359375 C 3.007812 -1.359375 2.722656 -1.445312 2.453125 -1.625 C 2.054688 -1.875 1.816406 -2.253906 1.734375 -2.765625 C 1.660156 -3.273438 1.71875 -4 1.90625 -4.9375 C 2.144531 -6.144531 2.566406 -7.539062 3.171875 -9.125 C 3.773438 -10.71875 4.5 -12.398438 5.34375 -14.171875 C 6.195312 -15.941406 7.128906 -17.6875 8.140625 -19.40625 C 9.148438 -21.125 10.171875 -22.710938 11.203125 -24.171875 C 13.253906 -27.015625 15.148438 -29.175781 16.890625 -30.65625 C 18.628906 -32.132812 20.132812 -32.875 21.40625 -32.875 C 21.644531 -32.875 21.867188 -32.84375 22.078125 -32.78125 C 22.296875 -32.71875 22.507812 -32.644531 22.71875 -32.5625 C 23.289062 -32.257812 23.710938 -31.742188 23.984375 -31.015625 C 24.253906 -30.285156 24.453125 -29.109375 24.578125 -27.484375 C 24.671875 -26.597656 24.71875 -26.039062 24.71875 -25.8125 C 24.71875 -25.59375 24.65625 -25.40625 24.53125 -25.25 C 24.351562 -25.070312 24.140625 -24.984375 23.890625 -24.984375 C 23.441406 -24.984375 23.140625 -25.253906 22.984375 -25.796875 C 22.953125 -25.953125 22.914062 -26.1875 22.875 -26.5 C 22.832031 -26.820312 22.796875 -27.117188 22.765625 -27.390625 C 22.703125 -28.171875 22.585938 -28.894531 22.421875 -29.5625 C 22.253906 -30.226562 22.097656 -30.625 21.953125 -30.75 C 21.828125 -30.863281 21.644531 -30.921875 21.40625 -30.921875 C 20.914062 -30.921875 20.320312 -30.671875 19.625 -30.171875 C 18.9375 -29.671875 18.222656 -29.070312 17.484375 -28.375 C 16.742188 -27.6875 16.082031 -27.007812 15.5 -26.34375 C 14.925781 -25.675781 14.503906 -25.175781 14.234375 -24.84375 C 12.515625 -22.613281 10.875 -20.113281 9.3125 -17.34375 C 7.757812 -14.570312 6.46875 -11.890625 5.4375 -9.296875 C 5.101562 -8.421875 4.789062 -7.539062 4.5 -6.65625 C 4.21875 -5.78125 4.015625 -5.0625 3.890625 -4.5 C 3.773438 -3.945312 3.78125 -3.6875 3.90625 -3.71875 C 3.925781 -3.71875 4.21875 -3.9375 4.78125 -4.375 C 5.34375 -4.8125 6 -5.316406 6.75 -5.890625 C 7.65625 -6.585938 8.726562 -7.390625 9.96875 -8.296875 C 11.207031 -9.203125 12.519531 -10.078125 13.90625 -10.921875 C 15.300781 -11.773438 16.6875 -12.472656 18.0625 -13.015625 C 19.4375 -13.554688 20.71875 -13.828125 21.90625 -13.828125 C 23.195312 -13.828125 24.222656 -13.453125 24.984375 -12.703125 C 25.742188 -11.972656 26.179688 -10.875 26.296875 -9.40625 C 26.421875 -7.9375 26.195312 -6.3125 25.625 -4.53125 C 25.4375 -4.050781 25.34375 -3.734375 25.34375 -3.578125 C 25.375 -3.578125 25.554688 -3.664062 25.890625 -3.84375 C 26.222656 -4.03125 26.613281 -4.242188 27.0625 -4.484375 C 28.664062 -5.390625 30.132812 -6.140625 31.46875 -6.734375 C 32.800781 -7.328125 33.753906 -7.648438 34.328125 -7.703125 C 34.421875 -7.734375 34.503906 -7.75 34.578125 -7.75 C 34.648438 -7.75 34.703125 -7.75 34.734375 -7.75 C 34.972656 -7.75 35.195312 -7.660156 35.40625 -7.484375 C 35.832031 -7.148438 35.945312 -6.738281 35.75 -6.25 C 35.550781 -5.769531 35.179688 -5.546875 34.640625 -5.578125 C 34.160156 -5.578125 33.503906 -5.410156 32.671875 -5.078125 C 31.835938 -4.742188 30.957031 -4.328125 30.03125 -3.828125 C 29.113281 -3.328125 28.242188 -2.832031 27.421875 -2.34375 C 26.609375 -1.863281 25.976562 -1.472656 25.53125 -1.171875 C 24.988281 -0.816406 24.578125 -0.539062 24.296875 -0.34375 C 24.023438 -0.144531 23.820312 0.0390625 23.6875 0.21875 C 23.550781 0.40625 23.394531 0.664062 23.21875 1 C 22.882812 1.632812 22.347656 2.492188 21.609375 3.578125 C 20.867188 4.671875 20.003906 5.84375 19.015625 7.09375 C 18.035156 8.351562 17.007812 9.546875 15.9375 10.671875 C 14.863281 11.804688 13.8125 12.738281 12.78125 13.46875 C 11.757812 14.195312 10.820312 14.5625 9.96875 14.5625 C 9.726562 14.5625 9.566406 14.546875 9.484375 14.515625 Z M 11.75 11.65625 C 12.101562 11.414062 12.617188 10.976562 13.296875 10.34375 C 13.984375 9.707031 14.6875 9.003906 15.40625 8.234375 C 16.132812 7.460938 16.742188 6.773438 17.234375 6.171875 C 17.984375 5.234375 18.554688 4.484375 18.953125 3.921875 C 19.347656 3.359375 19.453125 3.15625 19.265625 3.3125 C 18.421875 3.976562 17.53125 4.75 16.59375 5.625 C 15.65625 6.5 14.769531 7.363281 13.9375 8.21875 C 13.113281 9.082031 12.441406 9.847656 11.921875 10.515625 C 11.078125 11.640625 10.71875 12.203125 10.84375 12.203125 C 10.957031 12.203125 11.257812 12.019531 11.75 11.65625 Z M 11.75 11.65625 "/></g></g></g><g fill="#000000" fill-opacity="1"><g transform="translate(35.596253, 49.142098)"><g><path d="M 22.9375 12.46875 C 21.976562 12.46875 21.148438 12.171875 20.453125 11.578125 C 19.753906 10.992188 19.171875 10.234375 18.703125 9.296875 C 18.234375 8.359375 17.847656 7.351562 17.546875 6.28125 C 17.242188 5.207031 17.007812 4.171875 16.84375 3.171875 C 16.675781 2.171875 16.546875 1.34375 16.453125 0.6875 C 16.304688 -0.707031 16.207031 -2.378906 16.15625 -4.328125 C 16.113281 -6.273438 16.140625 -8.285156 16.234375 -10.359375 C 16.328125 -12.429688 16.460938 -14.3125 16.640625 -16 C 16.703125 -16.488281 16.75 -16.90625 16.78125 -17.25 C 16.8125 -17.601562 16.8125 -17.78125 16.78125 -17.78125 C 16.78125 -17.832031 16.671875 -17.617188 16.453125 -17.140625 C 16.242188 -16.535156 15.921875 -15.710938 15.484375 -14.671875 C 15.046875 -13.628906 14.550781 -12.488281 14 -11.25 C 13.457031 -10.007812 12.898438 -8.742188 12.328125 -7.453125 C 11.753906 -6.171875 11.203125 -4.96875 10.671875 -3.84375 C 10.148438 -2.726562 9.691406 -1.78125 9.296875 -1 C 7.898438 1.8125 6.765625 3.804688 5.890625 4.984375 C 5.015625 6.160156 4.226562 6.75 3.53125 6.75 C 2.875 6.75 2.382812 6.476562 2.0625 5.9375 C 1.75 5.394531 1.550781 4.773438 1.46875 4.078125 C 1.394531 3.378906 1.359375 2.804688 1.359375 2.359375 L 1.359375 2.125 C 1.359375 0.5 1.554688 -1.320312 1.953125 -3.34375 C 2.347656 -5.375 2.882812 -7.445312 3.5625 -9.5625 C 4.238281 -11.675781 5.015625 -13.707031 5.890625 -15.65625 C 6.765625 -17.613281 7.703125 -19.347656 8.703125 -20.859375 C 9.035156 -21.335938 9.457031 -21.894531 9.96875 -22.53125 C 10.488281 -23.164062 11.066406 -23.785156 11.703125 -24.390625 C 12.335938 -24.992188 12.992188 -25.492188 13.671875 -25.890625 C 14.347656 -26.285156 15.019531 -26.484375 15.6875 -26.484375 C 16.257812 -26.484375 16.757812 -26.316406 17.1875 -25.984375 C 17.425781 -25.796875 17.578125 -25.703125 17.640625 -25.703125 C 17.703125 -25.765625 17.835938 -26.097656 18.046875 -26.703125 C 18.253906 -27.304688 18.476562 -27.972656 18.71875 -28.703125 C 18.96875 -29.429688 19.148438 -30.003906 19.265625 -30.421875 C 19.535156 -31.453125 19.785156 -32.207031 20.015625 -32.6875 C 20.242188 -33.175781 20.476562 -33.476562 20.71875 -33.59375 C 20.90625 -33.65625 21.039062 -33.6875 21.125 -33.6875 C 21.582031 -33.6875 21.898438 -33.488281 22.078125 -33.09375 C 22.171875 -32.882812 22.1875 -32.628906 22.125 -32.328125 C 22.0625 -32.023438 21.835938 -31.300781 21.453125 -30.15625 C 20.816406 -28.21875 20.265625 -25.984375 19.796875 -23.453125 C 19.328125 -20.929688 18.945312 -18.296875 18.65625 -15.546875 C 18.375 -12.796875 18.21875 -10.097656 18.1875 -7.453125 C 18.15625 -4.804688 18.242188 -2.410156 18.453125 -0.265625 C 18.515625 0.148438 18.597656 0.78125 18.703125 1.625 C 18.804688 2.476562 18.972656 3.398438 19.203125 4.390625 C 19.429688 5.390625 19.710938 6.34375 20.046875 7.25 C 20.378906 8.15625 20.785156 8.90625 21.265625 9.5 C 21.742188 10.09375 22.316406 10.390625 22.984375 10.390625 C 23.890625 10.390625 24.765625 10.003906 25.609375 9.234375 C 26.460938 8.460938 27.257812 7.46875 28 6.25 C 28.738281 5.039062 29.398438 3.765625 29.984375 2.421875 C 30.578125 1.078125 31.085938 -0.171875 31.515625 -1.328125 C 31.941406 -2.492188 32.242188 -3.410156 32.421875 -4.078125 C 32.722656 -5.046875 32.945312 -5.753906 33.09375 -6.203125 C 33.25 -6.660156 33.378906 -6.960938 33.484375 -7.109375 C 33.585938 -7.265625 33.703125 -7.375 33.828125 -7.4375 C 34.035156 -7.5625 34.234375 -7.625 34.421875 -7.625 C 34.566406 -7.625 34.734375 -7.53125 34.921875 -7.34375 C 35.160156 -7.132812 35.238281 -6.800781 35.15625 -6.34375 C 35.082031 -5.894531 34.835938 -4.957031 34.421875 -3.53125 C 34.140625 -2.65625 33.757812 -1.550781 33.28125 -0.21875 C 32.800781 1.101562 32.21875 2.5 31.53125 3.96875 C 30.851562 5.4375 30.078125 6.8125 29.203125 8.09375 C 28.328125 9.375 27.363281 10.421875 26.3125 11.234375 C 25.269531 12.054688 24.144531 12.46875 22.9375 12.46875 Z M 5.4375 1.953125 C 6.28125 0.523438 7.304688 -1.453125 8.515625 -3.984375 C 9.734375 -6.523438 11.003906 -9.367188 12.328125 -12.515625 C 12.847656 -13.691406 13.347656 -14.882812 13.828125 -16.09375 C 14.316406 -17.300781 14.769531 -18.421875 15.1875 -19.453125 C 15.613281 -20.484375 15.945312 -21.320312 16.1875 -21.96875 C 16.425781 -22.613281 16.546875 -22.96875 16.546875 -23.03125 C 16.546875 -23.269531 16.476562 -23.5625 16.34375 -23.90625 C 16.207031 -24.257812 16.082031 -24.46875 15.96875 -24.53125 C 15.90625 -24.5625 15.8125 -24.578125 15.6875 -24.578125 C 15.113281 -24.578125 14.320312 -24.097656 13.3125 -23.140625 C 12.300781 -22.191406 11.3125 -21.007812 10.34375 -19.59375 C 9.40625 -18.195312 8.503906 -16.53125 7.640625 -14.59375 C 6.773438 -12.664062 6.007812 -10.613281 5.34375 -8.4375 C 4.6875 -6.257812 4.160156 -4.113281 3.765625 -2 C 3.671875 -1.507812 3.59375 -0.84375 3.53125 0 C 3.476562 0.84375 3.453125 1.648438 3.453125 2.421875 C 3.453125 3.191406 3.460938 3.710938 3.484375 3.984375 L 3.578125 4.53125 L 4.078125 3.984375 C 4.234375 3.835938 4.445312 3.5625 4.71875 3.15625 C 4.988281 2.75 5.226562 2.347656 5.4375 1.953125 Z M 5.4375 1.953125 "/></g></g></g><g fill="#000000" fill-opacity="1"><g transform="translate(69.424336, 49.142098)"><g><path d="M 27.296875 18.234375 C 26.816406 17.742188 26.394531 16.457031 26.03125 14.375 C 25.664062 12.289062 25.347656 9.3125 25.078125 5.4375 C 25.015625 4.738281 24.96875 3.800781 24.9375 2.625 C 24.90625 1.445312 24.878906 0.179688 24.859375 -1.171875 C 24.847656 -2.535156 24.847656 -3.875 24.859375 -5.1875 C 24.878906 -6.507812 24.90625 -7.679688 24.9375 -8.703125 C 24.96875 -9.734375 25.015625 -10.488281 25.078125 -10.96875 C 25.222656 -12.332031 25.394531 -13.734375 25.59375 -15.171875 C 25.789062 -16.609375 25.992188 -17.804688 26.203125 -18.765625 C 26.296875 -19.253906 26.375 -19.671875 26.4375 -20.015625 C 26.5 -20.367188 26.515625 -20.546875 26.484375 -20.546875 C 26.484375 -20.578125 26.347656 -20.367188 26.078125 -19.921875 C 25.804688 -19.484375 25.472656 -18.945312 25.078125 -18.3125 C 23.835938 -16.257812 22.695312 -14.257812 21.65625 -12.3125 C 20.613281 -10.363281 19.625 -8.382812 18.6875 -6.375 C 17.75 -4.363281 16.8125 -2.222656 15.875 0.046875 C 15.570312 0.828125 15.28125 1.503906 15 2.078125 C 14.726562 2.660156 14.550781 2.992188 14.46875 3.078125 C 14.226562 3.234375 14.015625 3.3125 13.828125 3.3125 C 13.554688 3.3125 13.300781 3.191406 13.0625 2.953125 L 12.65625 2.625 L 12.65625 -0.140625 C 12.65625 -1.160156 12.691406 -2.40625 12.765625 -3.875 C 12.835938 -5.34375 12.921875 -6.929688 13.015625 -8.640625 C 13.109375 -10.347656 13.222656 -12.082031 13.359375 -13.84375 C 13.492188 -15.613281 13.632812 -17.285156 13.78125 -18.859375 C 13.875 -19.828125 13.953125 -20.664062 14.015625 -21.375 C 14.078125 -22.082031 14.09375 -22.453125 14.0625 -22.484375 C 14.03125 -22.515625 13.820312 -22.109375 13.4375 -21.265625 C 13.0625 -20.421875 12.632812 -19.425781 12.15625 -18.28125 C 10.613281 -14.5 9.304688 -10.488281 8.234375 -6.25 C 7.160156 -2.019531 6.394531 2.175781 5.9375 6.34375 C 5.820312 7.519531 5.71875 8.273438 5.625 8.609375 C 5.53125 8.941406 5.363281 9.171875 5.125 9.296875 C 4.945312 9.390625 4.765625 9.4375 4.578125 9.4375 C 3.941406 9.4375 3.535156 8.875 3.359375 7.75 C 3.296875 7.269531 3.203125 6.476562 3.078125 5.375 C 2.960938 4.269531 2.847656 3.070312 2.734375 1.78125 C 2.628906 0.5 2.550781 -0.632812 2.5 -1.625 C 2.4375 -2.6875 2.390625 -3.988281 2.359375 -5.53125 C 2.328125 -7.070312 2.3125 -8.679688 2.3125 -10.359375 C 2.3125 -12.035156 2.332031 -13.597656 2.375 -15.046875 C 2.425781 -16.503906 2.484375 -17.65625 2.546875 -18.5 C 2.722656 -20.644531 2.96875 -22.726562 3.28125 -24.75 C 3.601562 -26.78125 3.957031 -28.535156 4.34375 -30.015625 C 4.738281 -31.492188 5.101562 -32.492188 5.4375 -33.015625 C 5.675781 -33.347656 5.945312 -33.523438 6.25 -33.546875 C 6.28125 -33.546875 6.296875 -33.546875 6.296875 -33.546875 C 6.296875 -33.546875 6.3125 -33.546875 6.34375 -33.546875 C 6.894531 -33.546875 7.226562 -33.28125 7.34375 -32.75 C 7.46875 -32.226562 7.316406 -31.785156 6.890625 -31.421875 C 6.742188 -31.273438 6.585938 -30.9375 6.421875 -30.40625 C 6.253906 -29.875 6.046875 -28.988281 5.796875 -27.75 C 5.222656 -24.820312 4.816406 -21.429688 4.578125 -17.578125 C 4.335938 -13.722656 4.273438 -9.722656 4.390625 -5.578125 C 4.453125 -4.273438 4.503906 -3.109375 4.546875 -2.078125 C 4.597656 -1.054688 4.640625 -0.46875 4.671875 -0.3125 C 4.734375 -0.132812 4.765625 -0.046875 4.765625 -0.046875 C 4.796875 -0.046875 4.851562 -0.332031 4.9375 -0.90625 C 5.238281 -2.570312 5.628906 -4.351562 6.109375 -6.25 C 6.597656 -8.15625 7.148438 -10.082031 7.765625 -12.03125 C 8.390625 -13.988281 9.050781 -15.875 9.75 -17.6875 C 10.445312 -19.5 11.140625 -21.128906 11.828125 -22.578125 C 12.492188 -23.972656 13.078125 -24.988281 13.578125 -25.625 C 14.078125 -26.257812 14.539062 -26.578125 14.96875 -26.578125 C 15.351562 -26.578125 15.648438 -26.414062 15.859375 -26.09375 C 16.078125 -25.78125 16.21875 -25.457031 16.28125 -25.125 C 16.3125 -24.9375 16.296875 -24.390625 16.234375 -23.484375 C 16.171875 -22.578125 16.09375 -21.566406 16 -20.453125 C 15.882812 -19.304688 15.765625 -17.972656 15.640625 -16.453125 C 15.523438 -14.941406 15.410156 -13.398438 15.296875 -11.828125 C 15.191406 -10.265625 15.09375 -8.804688 15 -7.453125 C 14.914062 -6.109375 14.847656 -5.015625 14.796875 -4.171875 C 14.753906 -3.328125 14.75 -2.890625 14.78125 -2.859375 C 14.8125 -2.828125 14.914062 -3 15.09375 -3.375 C 15.28125 -3.75 15.476562 -4.210938 15.6875 -4.765625 C 15.894531 -5.210938 16.285156 -6.03125 16.859375 -7.21875 C 17.441406 -8.414062 18.140625 -9.804688 18.953125 -11.390625 C 19.765625 -12.984375 20.625 -14.617188 21.53125 -16.296875 C 22.445312 -17.972656 23.359375 -19.535156 24.265625 -20.984375 C 25.171875 -22.441406 25.992188 -23.613281 26.734375 -24.5 C 27.472656 -25.394531 28.050781 -25.84375 28.46875 -25.84375 C 28.800781 -25.84375 29.070312 -25.726562 29.28125 -25.5 C 29.5 -25.28125 29.609375 -25.003906 29.609375 -24.671875 C 29.609375 -24.546875 29.546875 -24.21875 29.421875 -23.6875 C 29.304688 -23.164062 29.171875 -22.585938 29.015625 -21.953125 C 28.078125 -18.378906 27.445312 -14.640625 27.125 -10.734375 C 26.8125 -6.835938 26.765625 -2.519531 26.984375 2.21875 C 27.128906 4.9375 27.300781 7.375 27.5 9.53125 C 27.695312 11.695312 27.90625 13.414062 28.125 14.6875 C 28.351562 15.957031 28.578125 16.59375 28.796875 16.59375 C 28.941406 16.59375 29.085938 16.691406 29.234375 16.890625 C 29.390625 17.085938 29.46875 17.289062 29.46875 17.5 C 29.46875 17.832031 29.347656 18.101562 29.109375 18.3125 C 28.867188 18.53125 28.582031 18.640625 28.25 18.640625 C 27.882812 18.640625 27.566406 18.503906 27.296875 18.234375 Z M 27.296875 18.234375 "/></g></g></g></g></g><g fill="#000000" fill-opacity="1"><g transform="translate(105.693302, 329.446502)"><g><path d="M 1.421875 0 L 1.421875 -9.796875 L 7.046875 -9.796875 L 7.046875 -8.65625 L 2.65625 -8.65625 L 2.65625 -5.265625 L 6.671875 -5.265625 L 6.671875 -4.125 L 2.65625 -4.125 L 2.65625 0 Z M 1.421875 0 "/></g></g></g><g fill="#000000" fill-opacity="1"><g transform="translate(117.392939, 329.446502)"><g><path d="M 0.234375 0 L 4.265625 -9.796875 L 5.421875 -9.796875 L 9.453125 0 L 8.140625 0 L 7.21875 -2.21875 L 2.453125 -2.21875 L 1.546875 0 Z M 2.921875 -3.375 L 6.765625 -3.375 L 4.84375 -8.078125 Z M 2.921875 -3.375 "/></g></g></g><g fill="#000000" fill-opacity="1"><g transform="translate(130.967531, 329.446502)"><g><path d="M 4.6875 0.1875 C 3.90625 0.1875 3.226562 0.0546875 2.65625 -0.203125 C 2.082031 -0.472656 1.640625 -0.847656 1.328125 -1.328125 C 1.015625 -1.816406 0.851562 -2.378906 0.84375 -3.015625 L 2.078125 -3.015625 C 2.085938 -2.390625 2.332031 -1.894531 2.8125 -1.53125 C 3.300781 -1.175781 3.925781 -1 4.6875 -1 C 5.375 -1 5.921875 -1.132812 6.328125 -1.40625 C 6.734375 -1.675781 6.9375 -2.050781 6.9375 -2.53125 C 6.9375 -2.988281 6.738281 -3.351562 6.34375 -3.625 C 5.957031 -3.90625 5.320312 -4.148438 4.4375 -4.359375 C 3.226562 -4.640625 2.34375 -5.003906 1.78125 -5.453125 C 1.226562 -5.910156 0.953125 -6.519531 0.953125 -7.28125 C 0.953125 -8.113281 1.265625 -8.769531 1.890625 -9.25 C 2.523438 -9.738281 3.378906 -9.984375 4.453125 -9.984375 C 5.554688 -9.984375 6.425781 -9.707031 7.0625 -9.15625 C 7.695312 -8.601562 8.019531 -7.851562 8.03125 -6.90625 L 6.8125 -6.90625 C 6.800781 -7.488281 6.582031 -7.953125 6.15625 -8.296875 C 5.738281 -8.640625 5.171875 -8.8125 4.453125 -8.8125 C 3.753906 -8.8125 3.207031 -8.671875 2.8125 -8.390625 C 2.414062 -8.117188 2.21875 -7.75 2.21875 -7.28125 C 2.21875 -6.875 2.398438 -6.535156 2.765625 -6.265625 C 3.128906 -5.992188 3.789062 -5.738281 4.75 -5.5 C 6 -5.195312 6.890625 -4.8125 7.421875 -4.34375 C 7.953125 -3.882812 8.21875 -3.296875 8.21875 -2.578125 C 8.21875 -1.722656 7.894531 -1.046875 7.25 -0.546875 C 6.613281 -0.0546875 5.757812 0.1875 4.6875 0.1875 Z M 4.6875 0.1875 "/></g></g></g><g fill="#000000" fill-opacity="1"><g transform="translate(143.91248, 329.446502)"><g><path d="M 7.859375 0 L 7.859375 -4.40625 L 2.65625 -4.40625 L 2.65625 0 L 1.421875 0 L 1.421875 -9.796875 L 2.65625 -9.796875 L 2.65625 -5.59375 L 7.859375 -5.59375 L 7.859375 -9.796875 L 9.09375 -9.796875 L 9.09375 0 Z M 7.859375 0 "/></g></g></g><g fill="#000000" fill-opacity="1"><g transform="translate(158.312614, 329.446502)"><g><path d="M 1.421875 0 L 1.421875 -9.796875 L 2.65625 -9.796875 L 2.65625 0 Z M 1.421875 0 "/></g></g></g><g fill="#000000" fill-opacity="1"><g transform="translate(166.290336, 329.446502)"><g><path d="M 5.875 0.1875 C 4.882812 0.1875 4.003906 -0.03125 3.234375 -0.46875 C 2.472656 -0.90625 1.878906 -1.503906 1.453125 -2.265625 C 1.023438 -3.035156 0.8125 -3.914062 0.8125 -4.90625 C 0.8125 -5.894531 1.023438 -6.769531 1.453125 -7.53125 C 1.878906 -8.300781 2.472656 -8.898438 3.234375 -9.328125 C 4.003906 -9.765625 4.882812 -9.984375 5.875 -9.984375 C 6.875 -9.984375 7.753906 -9.765625 8.515625 -9.328125 C 9.273438 -8.898438 9.875 -8.300781 10.3125 -7.53125 C 10.75 -6.769531 10.96875 -5.894531 10.96875 -4.90625 C 10.96875 -3.914062 10.75 -3.035156 10.3125 -2.265625 C 9.875 -1.503906 9.273438 -0.90625 8.515625 -0.46875 C 7.753906 -0.03125 6.875 0.1875 5.875 0.1875 Z M 2.078125 -4.90625 C 2.078125 -4.144531 2.234375 -3.472656 2.546875 -2.890625 C 2.867188 -2.316406 3.316406 -1.863281 3.890625 -1.53125 C 4.472656 -1.207031 5.132812 -1.046875 5.875 -1.046875 C 6.632812 -1.046875 7.296875 -1.207031 7.859375 -1.53125 C 8.429688 -1.863281 8.878906 -2.316406 9.203125 -2.890625 C 9.523438 -3.472656 9.6875 -4.144531 9.6875 -4.90625 C 9.6875 -5.664062 9.523438 -6.332031 9.203125 -6.90625 C 8.878906 -7.476562 8.429688 -7.925781 7.859375 -8.25 C 7.296875 -8.582031 6.632812 -8.75 5.875 -8.75 C 5.132812 -8.75 4.472656 -8.582031 3.890625 -8.25 C 3.316406 -7.925781 2.867188 -7.476562 2.546875 -6.90625 C 2.234375 -6.332031 2.078125 -5.664062 2.078125 -4.90625 Z M 2.078125 -4.90625 "/></g></g></g><g fill="#000000" fill-opacity="1"><g transform="translate(181.93577, 329.446502)"><g><path d="M 1.421875 0 L 1.421875 -9.796875 L 2.59375 -9.796875 L 8.015625 -2.125 L 8.015625 -9.796875 L 9.21875 -9.796875 L 9.21875 0 L 8.0625 0 L 2.640625 -7.671875 L 2.640625 0 Z M 1.421875 0 "/></g></g></g><g fill="#000000" fill-opacity="1"><g transform="translate(196.461835, 329.446502)"><g/></g></g><g fill="#000000" fill-opacity="1"><g transform="translate(203.823899, 329.446502)"><g><path d="M 1.421875 0 L 1.421875 -9.796875 L 5.21875 -9.796875 C 6.164062 -9.796875 6.921875 -9.5625 7.484375 -9.09375 C 8.046875 -8.625 8.328125 -7.992188 8.328125 -7.203125 C 8.328125 -6.722656 8.210938 -6.300781 7.984375 -5.9375 C 7.765625 -5.570312 7.457031 -5.285156 7.0625 -5.078125 C 7.5625 -4.878906 7.941406 -4.578125 8.203125 -4.171875 C 8.472656 -3.765625 8.609375 -3.289062 8.609375 -2.75 C 8.609375 -1.894531 8.320312 -1.222656 7.75 -0.734375 C 7.175781 -0.242188 6.394531 0 5.40625 0 Z M 2.65625 -1.140625 L 5.375 -1.140625 C 6.007812 -1.140625 6.492188 -1.285156 6.828125 -1.578125 C 7.171875 -1.867188 7.34375 -2.273438 7.34375 -2.796875 C 7.34375 -3.316406 7.171875 -3.71875 6.828125 -4 C 6.484375 -4.289062 5.992188 -4.4375 5.359375 -4.4375 L 2.65625 -4.4375 Z M 2.65625 -5.5625 L 5.1875 -5.5625 C 5.800781 -5.5625 6.265625 -5.695312 6.578125 -5.96875 C 6.898438 -6.238281 7.0625 -6.613281 7.0625 -7.09375 C 7.0625 -7.59375 6.898438 -7.976562 6.578125 -8.25 C 6.253906 -8.519531 5.789062 -8.65625 5.1875 -8.65625 L 2.65625 -8.65625 Z M 2.65625 -5.5625 "/></g></g></g><g fill="#000000" fill-opacity="1"><g transform="translate(217.104652, 329.446502)"><g><path d="M 1.421875 0 L 1.421875 -9.796875 L 5.171875 -9.796875 C 5.847656 -9.796875 6.4375 -9.664062 6.9375 -9.40625 C 7.445312 -9.15625 7.84375 -8.796875 8.125 -8.328125 C 8.40625 -7.859375 8.546875 -7.300781 8.546875 -6.65625 C 8.546875 -5.851562 8.335938 -5.191406 7.921875 -4.671875 C 7.515625 -4.160156 6.953125 -3.816406 6.234375 -3.640625 L 8.6875 0 L 7.203125 0 L 4.8125 -3.515625 L 2.65625 -3.515625 L 2.65625 0 Z M 2.65625 -4.6875 L 5.03125 -4.6875 C 5.75 -4.6875 6.300781 -4.859375 6.6875 -5.203125 C 7.082031 -5.546875 7.28125 -6.03125 7.28125 -6.65625 C 7.28125 -7.28125 7.082031 -7.765625 6.6875 -8.109375 C 6.300781 -8.453125 5.75 -8.625 5.03125 -8.625 L 2.65625 -8.625 Z M 2.65625 -4.6875 "/></g></g></g><g fill="#000000" fill-opacity="1"><g transform="translate(230.525332, 329.446502)"><g><path d="M 0.234375 0 L 4.265625 -9.796875 L 5.421875 -9.796875 L 9.453125 0 L 8.140625 0 L 7.21875 -2.21875 L 2.453125 -2.21875 L 1.546875 0 Z M 2.921875 -3.375 L 6.765625 -3.375 L 4.84375 -8.078125 Z M 2.921875 -3.375 "/></g></g></g><g fill="#000000" fill-opacity="1"><g transform="translate(244.099923, 329.446502)"><g><path d="M 1.421875 0 L 1.421875 -9.796875 L 2.59375 -9.796875 L 8.015625 -2.125 L 8.015625 -9.796875 L 9.21875 -9.796875 L 9.21875 0 L 8.0625 0 L 2.640625 -7.671875 L 2.640625 0 Z M 1.421875 0 "/></g></g></g><g fill="#000000" fill-opacity="1"><g transform="translate(258.625988, 329.446502)"><g><path d="M 1.421875 0 L 1.421875 -9.796875 L 4.8125 -9.796875 C 5.820312 -9.796875 6.703125 -9.585938 7.453125 -9.171875 C 8.203125 -8.753906 8.785156 -8.179688 9.203125 -7.453125 C 9.628906 -6.722656 9.84375 -5.875 9.84375 -4.90625 C 9.84375 -3.9375 9.628906 -3.082031 9.203125 -2.34375 C 8.785156 -1.613281 8.203125 -1.039062 7.453125 -0.625 C 6.703125 -0.207031 5.820312 0 4.8125 0 Z M 2.65625 -1.171875 L 4.8125 -1.171875 C 5.5625 -1.171875 6.21875 -1.328125 6.78125 -1.640625 C 7.34375 -1.953125 7.78125 -2.390625 8.09375 -2.953125 C 8.414062 -3.515625 8.578125 -4.164062 8.578125 -4.90625 C 8.578125 -5.644531 8.414062 -6.289062 8.09375 -6.84375 C 7.769531 -7.40625 7.320312 -7.84375 6.75 -8.15625 C 6.1875 -8.46875 5.523438 -8.625 4.765625 -8.625 L 2.65625 -8.625 Z M 2.65625 -1.171875 "/></g></g></g></svg>